# xmcd
#
# Track frame offsets:
#	150
#	13759
#	30456
#	48648
#	65035
#	82655
#	95224
#	110401
#	129036
#	143352
#	157763
#	174113
#
# Disc length: 2514 seconds
#
# Revision: 0
# Processed by: cddbd v1.5.1PL2 Copyright (c) Steve Scherf et al.
# Submitted via: EasyCDDAExtractor 4.6.9.1
#
DISCID=8709d00c
DTITLE=Emmylou Harris - Duets
DYEAR=1990
DGENRE=Country
TTITLE0=The Price I Pay (w-Desert Rose Band)
TTITLE1=Love Hurts (w-Gram Parsons)
TTITLE2=That Lovin' You Feelin' Again (w-Roy Orbison)
TTITLE3=We Believe In Happy Endings (w-Earl Thomas Conley)
TTITLE4=Thing About You (w-Southern Pacific)
TTITLE5=Star of Bethlehem (w-Neil Young)
TTITLE6=All Fall Down (w-George Jones)
TTITLE7=Wild Montana Skies (w-John Denver)
TTITLE8=Green Pastures (w-Ricky Skaggs)
TTITLE9=Gulf Coast Highway (w-Willie Nelson)
TTITLE10=If I Needed You (w-Don Williams)
TTITLE11=Evangeline (w-The Band)
EXTD=
EXTT0=
EXTT1=
EXTT2=
EXTT3=
EXTT4=
EXTT5=
EXTT6=
EXTT7=
EXTT8=
EXTT9=
EXTT10=
EXTT11=
PLAYORDER=
